<svg data-v-0dd9719b="" version="1.0" xmlns="http://www.w3.org/2000/svg" xmlns:xlink="http://www.w3.org/1999/xlink" width="100%" height="100%" viewBox="0 0 340.000000 250.000000" preserveAspectRatio="xMidYMid meet" color-interpolation-filters="sRGB" style="margin: auto;"> <rect data-v-0dd9719b="" x="0" y="0" width="100%" height="100%" fill="#fff" fill-opacity="1" class="background"></rect> <rect data-v-0dd9719b="" x="0" y="0" width="100%" height="100%" fill="url(#watermark)" fill-opacity="1" class="watermarklayer"></rect> <g data-v-0dd9719b="" fill="#333" class="icon-text-wrapper icon-svg-group iconsvg" transform="translate(46.959999084472656,95)"><g class="iconsvg-imagesvg" transform="translate(0,0)"><g><rect fill="#333" fill-opacity="0" stroke-width="2" x="0" y="0" width="60" height="60" class="image-rect"></rect> <svg x="0" y="0" width="60" height="60" filtersec="colorsb941312391" class="image-svg-svg primary" style="overflow: visible;"><svg xmlns="http://www.w3.org/2000/svg" viewBox="-0.0001936678891070187 -0.00003814971205429174 100.0001220703125 100.00006866455078"><path d="M22.5 8.24a49.66 49.66 0 0 1 8.63-4.55c1.37 21.02.15 22.1-8.63 4.55z" fill="#e01c4e"></path><path d="M11 18.68a50.17 50.17 0 0 1 6-6.27c9.73 14.78 8.7 15.9-6 6.27z" fill="#4dc2d4"></path><path d="M3.06 32.74a50 50 0 0 1 4.06-8.47C24 32.72 23 34 3.06 32.74z" fill="#ffc313"></path><path d="M0 51.73V50a50 50 0 0 1 1-10.09c24.58-1.65 23.61-.1-1 11.82z" fill="#f47725"></path><path d="M6.82 75.22A49.77 49.77 0 0 1 1.1 60.49c29.25-19.91 28.11-18.05 5.72 14.73z" fill="#e01c4e"></path><path d="M29.17 95.47a50.33 50.33 0 0 1-16.09-11.75c21.65-45.04 20.14-42.96 16.09 11.75z" fill="#23b4a7"></path><path d="M63.34 98.2a50.35 50.35 0 0 1-22.82.9c-4.64-63.78-6.67-61.5 22.82-.9z" fill="#e01c4e"></path><path d="M92.23 76.77a50.2 50.2 0 0 1-17.3 16.58C35 34.12 32.7 36.62 92.23 76.77z" fill="#ffc313"></path><path d="M99.39 42.2a50.12 50.12 0 0 1-1.8 23.15C35.5 35.09 33.4 37.44 99.39 42.2z" fill="#23b4a7"></path><path d="M84.28 13.61a50 50 0 0 1 11.79 16.94c-57.67 4.23-59.6 6.06-11.79-16.94z" fill="#4dc2d4"></path><path d="M60.06 1A49.55 49.55 0 0 1 75.6 7C40.35 31.13 38.57 32.53 60.06 1z" fill="#ffc313"></path><path d="M50 0h.94c-12.81 26.5-14.31 27.66-12.5 1.34A50 50 0 0 1 50 0z" fill="#f47725"></path></svg></svg> <!----></g></g> <g transform="translate(67,12.270000457763672)"><g data-gra="path-name" fill-rule="" class="tp-name iconsvg-namesvg"><g transform="scale(1)"><g><path d="M29.07-22.91L29.07-22.91Q29.07-21.06 28.74-19.55 28.42-18.04 27.73-16.78 27.05-15.52 25.95-14.45 24.86-13.38 23.31-12.41L23.31-12.41 28.97-2.33 18.28-0.24 14.62-10.36 11.67-10.27 11.24-0.38 1.02-0.38Q1.14-5.8 1.25-11.17 1.35-16.54 1.5-21.96L1.5-21.96Q1.54-24.69 1.59-27.38 1.64-30.06 1.78-32.8L1.78-32.8Q3.45-33.41 5.06-33.82 6.68-34.22 8.31-34.45 9.93-34.67 11.61-34.76 13.28-34.84 15.04-34.84L15.04-34.84Q17.75-34.84 20.28-34.09 22.81-33.34 24.76-31.85 26.71-30.35 27.89-28.11 29.07-25.88 29.07-22.91ZM18.42-22.15L18.42-22.15Q18.42-23.15 18.14-23.98 17.87-24.81 17.34-25.42 16.8-26.02 16.01-26.37 15.21-26.71 14.14-26.71L14.14-26.71Q13.67-26.71 13.21-26.65 12.76-26.59 12.33-26.47L12.33-26.47 11.95-17.63 12.52-17.63Q13.55-17.63 14.6-17.9 15.66-18.16 16.51-18.7 17.35-19.25 17.88-20.11 18.42-20.96 18.42-22.15ZM60.08-18.2L60.08-18.2Q60.08-16.04 59.58-14.03 59.08-12.03 58.14-10.27 57.2-8.51 55.86-7.05 54.52-5.58 52.84-4.54 51.17-3.49 49.19-2.91 47.22-2.33 45.01-2.33L45.01-2.33Q42.87-2.33 40.94-2.88 39-3.42 37.31-4.41 35.62-5.39 34.26-6.79 32.89-8.18 31.93-9.87 30.97-11.57 30.43-13.52 29.9-15.47 29.9-17.59L29.9-17.59Q29.9-19.65 30.4-21.64 30.9-23.62 31.83-25.38 32.77-27.14 34.1-28.61 35.43-30.09 37.09-31.16 38.74-32.23 40.66-32.82 42.59-33.41 44.73-33.41L44.73-33.41Q48.17-33.41 51.01-32.34 53.85-31.28 55.86-29.29 57.87-27.31 58.97-24.49 60.08-21.67 60.08-18.2ZM49.53-17.59L49.53-17.59Q49.53-18.61 49.23-19.57 48.93-20.53 48.36-21.28 47.79-22.03 46.95-22.49 46.11-22.96 45.01-22.96L45.01-22.96Q43.89-22.96 43.02-22.55 42.14-22.15 41.51-21.45 40.88-20.75 40.54-19.81 40.21-18.87 40.21-17.82L40.21-17.82Q40.21-16.83 40.5-15.83 40.78-14.83 41.35-14.02 41.92-13.21 42.77-12.71 43.61-12.22 44.73-12.22L44.73-12.22Q45.84-12.22 46.73-12.66 47.63-13.09 48.24-13.84 48.86-14.59 49.19-15.57 49.53-16.54 49.53-17.59ZM84.42-32.46L84.42-32.46 83.56-22.43Q82.87-22.62 82.2-22.7 81.54-22.77 80.85-22.77L80.85-22.77Q79.16-22.77 77.63-22.34 76.1-21.91 74.92-21.03 73.74-20.15 73.04-18.81 72.34-17.47 72.34-15.64L72.34-15.64Q72.34-14.31 72.73-13.32 73.13-12.33 73.85-11.68 74.58-11.03 75.61-10.69 76.64-10.36 77.9-10.36L77.9-10.36Q78.78-10.36 79.71-10.54 80.64-10.72 81.56-11.03 82.49-11.34 83.35-11.74 84.2-12.14 84.94-12.6L84.94-12.6 84.56-1.43Q83.63-0.95 82.56-0.58 81.49-0.21 80.36 0.06 79.23 0.33 78.11 0.48 76.98 0.62 75.95 0.62L75.95 0.62Q72.58 0.62 69.81-0.64 67.04-1.9 65.06-4.08 63.07-6.25 61.98-9.13 60.89-12 60.89-15.26L60.89-15.26Q60.89-19.16 61.99-22.53 63.1-25.9 65.25-28.39 67.4-30.87 70.57-32.29 73.74-33.7 77.86-33.7L77.86-33.7Q79.5-33.7 81.18-33.44 82.87-33.18 84.42-32.46ZM104.4-33.56L115.9-30.71 105.4-18.2 115.05-1.85 104.02 0.1 96.8-9.7 96.42-0.38 86.53 0 87.29-34.03 98.37-33.41 97.51-23.62 104.4-33.56ZM143.26-16.78L143.26-16.78Q143.26-14.62 142.76-12.61 142.26-10.6 141.32-8.84 140.38-7.08 139.04-5.62 137.7-4.16 136.02-3.11 134.35-2.07 132.37-1.49 130.4-0.9 128.19-0.9L128.19-0.9Q126.05-0.9 124.12-1.45 122.18-2 120.49-2.98 118.8-3.97 117.44-5.36 116.07-6.75 115.11-8.45 114.15-10.15 113.61-12.1 113.08-14.05 113.08-16.16L113.08-16.16Q113.08-18.23 113.58-20.21 114.07-22.2 115.01-23.96 115.95-25.71 117.28-27.19 118.61-28.66 120.27-29.73 121.92-30.8 123.84-31.39 125.77-31.99 127.91-31.99L127.91-31.99Q131.35-31.99 134.19-30.92 137.03-29.85 139.04-27.87 141.05-25.88 142.15-23.06 143.26-20.25 143.26-16.78ZM132.71-16.16L132.71-16.16Q132.71-17.18 132.41-18.14 132.11-19.11 131.54-19.86 130.97-20.6 130.13-21.07 129.28-21.53 128.19-21.53L128.19-21.53Q127.07-21.53 126.19-21.13 125.32-20.72 124.69-20.02 124.06-19.32 123.72-18.38 123.39-17.44 123.39-16.4L123.39-16.4Q123.39-15.4 123.68-14.4 123.96-13.4 124.53-12.6 125.1-11.79 125.95-11.29 126.79-10.79 127.91-10.79L127.91-10.79Q129.02-10.79 129.91-11.23 130.81-11.67 131.42-12.42 132.04-13.17 132.37-14.14 132.71-15.11 132.71-16.16ZM144.68-32.8L157.33-33.46 155.66-1.09 145.64-0.57 144.68-32.8ZM170.45-12.6L180.1-12.6 179.1-2.04 159.09-0.48 159.85-34.41 172.2-34.41 170.45-12.6Z" transform="translate(-1.0199999809265137, 34.84000015258789)"></path></g> <!----> <!----> <!----> <!----> <!----> <!----> <!----></g></g> <!----></g></g><defs v-gra="od"></defs></svg>